<svg width="114" height="40" viewBox="0 0 114 40" fill="none" xmlns="http://www.w3.org/2000/svg">
<path d="M63.208 3.592L61.83 6.842H73.348L72.984 9.312H60.79L55.408 22.182H50.546L55.954 9.312H52.34L52.704 6.842H56.994L58.372 3.592H63.208ZM71.736 14.928L66.562 16.774L66.224 19.27H71.606L72.724 18.282L72.178 22.208H61.44L61.96 18.438L58.788 19.556L59.334 15.76L62.506 14.616L63.156 9.884H67.524L67.082 12.952L72.282 11.08L71.736 14.928ZM70.982 3.956L71.502 6.062H67.108L66.588 3.956H70.982ZM98.436 14.876L98.592 13.888H103.532L103.376 14.876H112.034L111.696 17.346H103.038L102.336 22.234H97.396L98.098 17.346H89.96L90.298 14.876H98.436ZM112.086 7.466L107.042 8.22L106.73 10.43H111.176L112.32 9.442L111.826 12.9H101.452L101.998 9L98.982 9.442L99.32 6.972L102.336 6.53L102.622 4.502L101.79 3.514H107.718L107.38 5.75L112.45 4.996L112.086 7.466ZM98.592 4.996H98.618L97.5 12.9H92.56L93.366 7.128L91.832 7.466L92.196 4.996L98.826 3.514L98.592 4.996Z" fill="#71FCFF"/>
<path d="M53.648 29.488L52.844 35.128H57.332L57.224 36.28H51.236C51.004 36.28 50.828 36.204 50.708 36.052C50.596 35.9 50.54 35.708 50.54 35.476L51.236 29.944L50.888 29.488H53.648ZM65.6315 29.488C65.7435 29.488 65.8475 29.508 65.9435 29.548C66.0395 29.588 66.1195 29.644 66.1835 29.716C66.2555 29.788 66.3035 29.872 66.3275 29.968C66.3515 30.064 66.3475 30.172 66.3155 30.292L65.5115 36.28H59.0555C58.9435 36.28 58.8395 36.26 58.7435 36.22C58.6475 36.18 58.5635 36.124 58.4915 36.052C58.4275 35.98 58.3835 35.896 58.3595 35.8C58.3355 35.696 58.3395 35.588 58.3715 35.476L59.1755 29.488H65.6315ZM61.2515 30.64L60.6755 35.128H63.3275L64.0115 30.64H61.2515ZM70.7658 29.488L73.1778 33.748L73.7538 29.488H75.7218L74.7978 36.28H72.4938L70.1898 32.128L69.6138 36.28H67.5378L68.4618 29.944L67.9938 29.488H70.7658ZM84.7873 31.444H82.4833L82.5913 30.64H79.8313L79.2553 35.128H82.0153L82.1353 33.748L81.4393 32.596H84.5473L84.0913 36.28H77.6353C77.5233 36.28 77.4193 36.26 77.3233 36.22C77.2273 36.18 77.1433 36.124 77.0713 36.052C77.0073 35.98 76.9633 35.896 76.9393 35.8C76.9153 35.696 76.9193 35.588 76.9513 35.476L77.7553 29.488H85.0153L84.7873 31.444ZM89.4394 29.488L89.0914 32.128H91.7674L92.0914 29.944L91.7434 29.488H94.3954L93.4714 36.28H91.1674L91.6234 33.28H88.9354L88.5154 36.28H86.2114L87.1354 29.824L86.6674 29.488H89.4394ZM98.7089 29.488L97.9049 35.128H100.665L101.481 29.824L101.013 29.488H103.785L102.861 36.28H96.2969C96.0649 36.28 95.8889 36.204 95.7689 36.052C95.6569 35.9 95.6009 35.708 95.6009 35.476L96.4049 29.824L96.0569 29.488H98.7089ZM111.998 29.488L112.91 36.28H110.846L110.606 34.432H107.726L106.922 36.28H104.966L107.618 29.824L107.27 29.488H111.998ZM109.346 30.64L108.194 33.28H110.498L110.15 30.64H109.346Z" fill="#71FCFF"/>
<path d="M9.41999 25L14.42 22L12.02 29L7.01999 32L9.41999 25Z" fill="#5F7EFF"/>
<path d="M2.42001 25L7.42001 22H14.42L9.42001 25H2.42001Z" fill="#AE47FC"/>
<path d="M9.42 25L7 32H0L2.42 25H9.42Z" fill="#00FAFF"/>
<path d="M12 17L17 14H28L23 17H12Z" fill="#AE47FC"/>
<path d="M23 17L28 14L26 20L21 23L23 17Z" fill="#5F7EFF"/>
<path d="M10 3L15 0H22L17 3H10Z" fill="#AE47FC"/>
<path d="M17 3L22 0L17 14L12 17L17 3Z" fill="#5F7EFF"/>
<path d="M12 17H23L21 23H3L10 3H17L12 17Z" fill="#00FAFF"/>
<path d="M35 11L40 8L29.97 36.99L24.96 40L35 11Z" fill="#5F7EFF"/>
<path d="M28 11L33 8H40L35 11H28Z" fill="#AE47FC"/>
<path d="M35 11L24.96 40H17.96L28 11H35Z" fill="#00FAFF"/>
</svg>
